<svg width="959" height="512" viewBox="0 0 959 512" fill="none" xmlns="http://www.w3.org/2000/svg">
<g clip-path="url(#clip0_4_2)">
<g filter="url(#filter0_f_4_2)">
<path d="M910.982 341.209L45 379.767L48.2725 453.265L914.254 414.707L910.982 341.209Z" fill="#007DFF"/>
</g>
<g filter="url(#filter1_d_4_2)">
<path d="M95.3645 217.921V170.5H232V371.033C232 411.622 191.009 444.575 141.178 438.949C91.3458 433.322 60 408.407 60 408.407L78.8878 360.986C78.8878 360.986 117.869 389.117 141.178 389.117C164.486 389.117 178 375.5 178 367C178 358.5 178.15 217.921 178.15 217.921H95.3645Z" fill="#00C2FF"/>
<path d="M204.5 103.5C188.061 103.5 175.5 118.061 175.5 134.5C175.5 149.5 189.765 160.733 204.5 160.5C219.235 160.267 232 150 232 134.5C232 118.274 222 103.5 204.5 103.5Z" fill="#00C2FF"/>
</g>
<g filter="url(#filter2_d_4_2)">
<path d="M714 358C714 232.446 714 73 714 73H761V330.5C761 358.5 788.5 353 788.5 353V401H761C731 401 714 377.5 714 358Z" fill="#00A6ED"/>
</g>
<g filter="url(#filter3_d_4_2)">
<path d="M817.5 401.5L817.5 171H871.351L871.351 401.5H817.5Z" fill="#0072DE"/>
<path d="M843.851 103.5C827.411 103.5 817.5 118.061 817.5 134.5C817.5 149.5 829.115 160.733 843.851 160.5C858.586 160.267 871.351 150 871.351 134.5C871.351 118.274 861.351 103.5 843.851 103.5Z" fill="#0072DE"/>
</g>
<g filter="url(#filter4_d_4_2)">
<path d="M282.891 386.6C283.954 386.733 283.655 386.975 284.045 387.754" stroke="black" stroke-width="10" stroke-linecap="round"/>
</g>
<g filter="url(#filter5_d_4_2)">
<path d="M319.421 375.193C321.151 368.276 322.424 361.276 323.402 354.226C321.188 361.245 319.473 368.368 318.396 375.513C317.409 382.064 318.783 377.747 319.421 375.193Z" fill="black"/>
<path d="M341.724 170.881C321.463 227.076 330.881 288.717 324.292 347.122C323.226 356.576 321.73 365.958 319.421 375.193C318.783 377.747 317.409 382.064 318.396 375.513C321.962 351.852 332.531 328.441 344.992 308.221C348.088 303.198 361.452 279.384 370.564 282.394C382.067 286.193 382.803 317.012 383.894 326.102C384.59 331.908 385.423 382.761 398.249 375.065" stroke="black" stroke-width="10" stroke-linecap="round"/>
</g>
<g filter="url(#filter6_d_4_2)">
<path d="M412.437 224.742C412.037 225.306 411.619 225.68 411.195 225.74C410.462 225.845 411.354 225.275 412.437 224.742Z" fill="black"/>
<path d="M415.553 217.024C415.025 218.33 413.175 225.457 411.195 225.74C409.983 225.913 413.212 224.243 414.4 223.946" stroke="black" stroke-width="10" stroke-linecap="round"/>
</g>
<g filter="url(#filter7_d_4_2)">
<path d="M413.246 280.471C410.311 288.018 414.451 300.182 415.553 307.773C418.377 327.217 421.52 346.67 424.013 366.156C424.726 371.736 423.678 378.466 425.359 383.845C425.388 383.94 425.935 375.157 425.935 372.758" stroke="black" stroke-width="10" stroke-linecap="round"/>
</g>
<g filter="url(#filter8_d_4_2)">
<path d="M496.304 305.85C496.304 298.663 497.635 287.979 486.947 289.315C465.646 291.978 460.773 327.899 459.005 344.431C458.337 350.668 457.442 383.188 472.976 370.322C481.597 363.182 487.629 350.744 493.42 341.419C502.897 326.156 510.397 310.026 517.196 293.417C526.761 270.054 529.042 246.254 530.655 221.254C530.675 220.936 531.857 208.877 532.001 208.949C533.358 209.628 532.08 227.189 532.065 228.432C531.585 267.135 522.715 305.108 521.939 343.79C521.75 353.2 521.202 386.6 535.525 386.6" stroke="black" stroke-width="10" stroke-linecap="round"/>
</g>
<g filter="url(#filter9_d_4_2)">
<path d="M572.44 327.768C565.205 331.759 577.388 329.434 579.554 328.601C590.499 324.391 600.908 314.277 605.253 303.415C607.897 296.803 607.433 284.175 597.114 286.239C583.285 289.005 574.148 312.257 569.107 323.346C563.48 335.725 550.924 372.501 576.798 372.501C590.787 372.501 605.275 365.927 617.43 359.684C627.456 354.533 632.914 350.775 637.04 340.457" stroke="black" stroke-width="10" stroke-linecap="round"/>
</g>
<g filter="url(#filter10_d_4_2)">
<path d="M680.876 360.068C680.561 362.907 667.846 370.385 673.955 361.222" stroke="black" stroke-width="10" stroke-linecap="round"/>
</g>
</g>
<defs>
<filter id="filter0_f_4_2" x="-30" y="266.209" width="1019.25" height="262.056" filterUnits="userSpaceOnUse" color-interpolation-filters="sRGB">
<feFlood flood-opacity="0" result="BackgroundImageFix"/>
<feBlend mode="normal" in="SourceGraphic" in2="BackgroundImageFix" result="shape"/>
<feGaussianBlur stdDeviation="37.5" result="effect1_foregroundBlur_4_2"/>
</filter>
<filter id="filter1_d_4_2" x="56" y="103.5" width="180" height="344.077" filterUnits="userSpaceOnUse" color-interpolation-filters="sRGB">
<feFlood flood-opacity="0" result="BackgroundImageFix"/>
<feColorMatrix in="SourceAlpha" type="matrix" values="0 0 0 0 0 0 0 0 0 0 0 0 0 0 0 0 0 0 127 0" result="hardAlpha"/>
<feOffset dy="4"/>
<feGaussianBlur stdDeviation="2"/>
<feComposite in2="hardAlpha" operator="out"/>
<feColorMatrix type="matrix" values="0 0 0 0 0 0 0 0 0 0 0 0 0 0 0 0 0 0 0.25 0"/>
<feBlend mode="normal" in2="BackgroundImageFix" result="effect1_dropShadow_4_2"/>
<feBlend mode="normal" in="SourceGraphic" in2="effect1_dropShadow_4_2" result="shape"/>
</filter>
<filter id="filter2_d_4_2" x="698" y="57" width="114.5" height="368" filterUnits="userSpaceOnUse" color-interpolation-filters="sRGB">
<feFlood flood-opacity="0" result="BackgroundImageFix"/>
<feColorMatrix in="SourceAlpha" type="matrix" values="0 0 0 0 0 0 0 0 0 0 0 0 0 0 0 0 0 0 127 0" result="hardAlpha"/>
<feOffset dx="4" dy="4"/>
<feGaussianBlur stdDeviation="10"/>
<feComposite in2="hardAlpha" operator="out"/>
<feColorMatrix type="matrix" values="0 0 0 0 0 0 0 0 0 0 0 0 0 0 0 0 0 0 0.5 0"/>
<feBlend mode="normal" in2="BackgroundImageFix" result="effect1_dropShadow_4_2"/>
<feBlend mode="normal" in="SourceGraphic" in2="effect1_dropShadow_4_2" result="shape"/>
</filter>
<filter id="filter3_d_4_2" x="801.5" y="87.5" width="93.8505" height="338" filterUnits="userSpaceOnUse" color-interpolation-filters="sRGB">
<feFlood flood-opacity="0" result="BackgroundImageFix"/>
<feColorMatrix in="SourceAlpha" type="matrix" values="0 0 0 0 0 0 0 0 0 0 0 0 0 0 0 0 0 0 127 0" result="hardAlpha"/>
<feOffset dx="4" dy="4"/>
<feGaussianBlur stdDeviation="10"/>
<feComposite in2="hardAlpha" operator="out"/>
<feColorMatrix type="matrix" values="0 0 0 0 0 0 0 0 0 0 0 0 0 0 0 0 0 0 0.5 0"/>
<feBlend mode="normal" in2="BackgroundImageFix" result="effect1_dropShadow_4_2"/>
<feBlend mode="normal" in="SourceGraphic" in2="effect1_dropShadow_4_2" result="shape"/>
</filter>
<filter id="filter4_d_4_2" x="277.891" y="381.6" width="19.1552" height="19.1552" filterUnits="userSpaceOnUse" color-interpolation-filters="sRGB">
<feFlood flood-opacity="0" result="BackgroundImageFix"/>
<feColorMatrix in="SourceAlpha" type="matrix" values="0 0 0 0 0 0 0 0 0 0 0 0 0 0 0 0 0 0 127 0" result="hardAlpha"/>
<feOffset dx="4" dy="4"/>
<feGaussianBlur stdDeviation="2"/>
<feComposite in2="hardAlpha" operator="out"/>
<feColorMatrix type="matrix" values="0 0 0 0 0 0 0 0 0 0 0 0 0 0 0 0 0 0 0.25 0"/>
<feBlend mode="normal" in2="BackgroundImageFix" result="effect1_dropShadow_4_2"/>
<feBlend mode="normal" in="SourceGraphic" in2="effect1_dropShadow_4_2" result="shape"/>
</filter>
<filter id="filter5_d_4_2" x="313.05" y="165.88" width="98.2001" height="226.089" filterUnits="userSpaceOnUse" color-interpolation-filters="sRGB">
<feFlood flood-opacity="0" result="BackgroundImageFix"/>
<feColorMatrix in="SourceAlpha" type="matrix" values="0 0 0 0 0 0 0 0 0 0 0 0 0 0 0 0 0 0 127 0" result="hardAlpha"/>
<feOffset dx="4" dy="4"/>
<feGaussianBlur stdDeviation="2"/>
<feComposite in2="hardAlpha" operator="out"/>
<feColorMatrix type="matrix" values="0 0 0 0 0 0 0 0 0 0 0 0 0 0 0 0 0 0 0.25 0"/>
<feBlend mode="normal" in2="BackgroundImageFix" result="effect1_dropShadow_4_2"/>
<feBlend mode="normal" in="SourceGraphic" in2="effect1_dropShadow_4_2" result="shape"/>
</filter>
<filter id="filter6_d_4_2" x="405.927" y="212.023" width="22.627" height="26.7295" filterUnits="userSpaceOnUse" color-interpolation-filters="sRGB">
<feFlood flood-opacity="0" result="BackgroundImageFix"/>
<feColorMatrix in="SourceAlpha" type="matrix" values="0 0 0 0 0 0 0 0 0 0 0 0 0 0 0 0 0 0 127 0" result="hardAlpha"/>
<feOffset dx="4" dy="4"/>
<feGaussianBlur stdDeviation="2"/>
<feComposite in2="hardAlpha" operator="out"/>
<feColorMatrix type="matrix" values="0 0 0 0 0 0 0 0 0 0 0 0 0 0 0 0 0 0 0.25 0"/>
<feBlend mode="normal" in2="BackgroundImageFix" result="effect1_dropShadow_4_2"/>
<feBlend mode="normal" in="SourceGraphic" in2="effect1_dropShadow_4_2" result="shape"/>
</filter>
<filter id="filter7_d_4_2" x="407.213" y="275.47" width="31.7223" height="121.275" filterUnits="userSpaceOnUse" color-interpolation-filters="sRGB">
<feFlood flood-opacity="0" result="BackgroundImageFix"/>
<feColorMatrix in="SourceAlpha" type="matrix" values="0 0 0 0 0 0 0 0 0 0 0 0 0 0 0 0 0 0 127 0" result="hardAlpha"/>
<feOffset dx="4" dy="4"/>
<feGaussianBlur stdDeviation="2"/>
<feComposite in2="hardAlpha" operator="out"/>
<feColorMatrix type="matrix" values="0 0 0 0 0 0 0 0 0 0 0 0 0 0 0 0 0 0 0.25 0"/>
<feBlend mode="normal" in2="BackgroundImageFix" result="effect1_dropShadow_4_2"/>
<feBlend mode="normal" in="SourceGraphic" in2="effect1_dropShadow_4_2" result="shape"/>
</filter>
<filter id="filter8_d_4_2" x="453.708" y="203.944" width="94.8173" height="195.657" filterUnits="userSpaceOnUse" color-interpolation-filters="sRGB">
<feFlood flood-opacity="0" result="BackgroundImageFix"/>
<feColorMatrix in="SourceAlpha" type="matrix" values="0 0 0 0 0 0 0 0 0 0 0 0 0 0 0 0 0 0 127 0" result="hardAlpha"/>
<feOffset dx="4" dy="4"/>
<feGaussianBlur stdDeviation="2"/>
<feComposite in2="hardAlpha" operator="out"/>
<feColorMatrix type="matrix" values="0 0 0 0 0 0 0 0 0 0 0 0 0 0 0 0 0 0 0.25 0"/>
<feBlend mode="normal" in2="BackgroundImageFix" result="effect1_dropShadow_4_2"/>
<feBlend mode="normal" in="SourceGraphic" in2="effect1_dropShadow_4_2" result="shape"/>
</filter>
<filter id="filter9_d_4_2" x="556.072" y="281.015" width="93.9701" height="104.486" filterUnits="userSpaceOnUse" color-interpolation-filters="sRGB">
<feFlood flood-opacity="0" result="BackgroundImageFix"/>
<feColorMatrix in="SourceAlpha" type="matrix" values="0 0 0 0 0 0 0 0 0 0 0 0 0 0 0 0 0 0 127 0" result="hardAlpha"/>
<feOffset dx="4" dy="4"/>
<feGaussianBlur stdDeviation="2"/>
<feComposite in2="hardAlpha" operator="out"/>
<feColorMatrix type="matrix" values="0 0 0 0 0 0 0 0 0 0 0 0 0 0 0 0 0 0 0.25 0"/>
<feBlend mode="normal" in2="BackgroundImageFix" result="effect1_dropShadow_4_2"/>
<feBlend mode="normal" in="SourceGraphic" in2="effect1_dropShadow_4_2" result="shape"/>
</filter>
<filter id="filter10_d_4_2" x="667.296" y="355.068" width="26.5805" height="23.5699" filterUnits="userSpaceOnUse" color-interpolation-filters="sRGB">
<feFlood flood-opacity="0" result="BackgroundImageFix"/>
<feColorMatrix in="SourceAlpha" type="matrix" values="0 0 0 0 0 0 0 0 0 0 0 0 0 0 0 0 0 0 127 0" result="hardAlpha"/>
<feOffset dx="4" dy="4"/>
<feGaussianBlur stdDeviation="2"/>
<feComposite in2="hardAlpha" operator="out"/>
<feColorMatrix type="matrix" values="0 0 0 0 0 0 0 0 0 0 0 0 0 0 0 0 0 0 0.25 0"/>
<feBlend mode="normal" in2="BackgroundImageFix" result="effect1_dropShadow_4_2"/>
<feBlend mode="normal" in="SourceGraphic" in2="effect1_dropShadow_4_2" result="shape"/>
</filter>
<clipPath id="clip0_4_2">
<rect width="959" height="512" fill="white"/>
</clipPath>
</defs>
</svg>
